<svg width="313" height="515" viewBox="0 0 313 515" fill="none" xmlns="http://www.w3.org/2000/svg">
<path d="M66.0452 514.512H245.97C285.549 514.512 312.014 489.237 312.014 451.324V63.19C312.014 25.2759 285.549 0 245.97 0H66.0452C26.4665 0 0 25.2759 0 63.19V451.324C0 489.237 26.4665 514.512 66.0452 514.512ZM71.1443 475.385C50.5051 475.385 39.093 464.447 39.093 445.005V69.5091C39.093 50.066 50.5051 39.1293 71.1443 39.1293H241.114C261.51 39.1293 272.923 50.066 272.923 69.5091V445.005C272.923 464.447 261.51 475.385 241.114 475.385H71.1443ZM104.652 457.643H207.848C214.404 457.643 219.017 453.024 219.017 446.219C219.017 439.413 214.404 435.04 207.848 435.04H104.652C98.0964 435.04 93.2402 439.413 93.2402 446.219C93.2402 453.024 98.0964 457.643 104.652 457.643ZM126.749 90.6535H185.509C194.979 90.6535 202.506 83.1191 202.506 73.3977C202.506 63.9192 194.979 56.3849 185.509 56.3849H126.749C117.036 56.3849 109.509 63.9192 109.509 73.3977C109.509 83.1191 117.036 90.6535 126.749 90.6535Z" fill="white"/>
</svg>
