<svg width="417" height="301" viewBox="0 0 417 301" fill="none" xmlns="http://www.w3.org/2000/svg">
<path d="M27.3583 126.699C30.9783 130.137 36.0462 130.137 39.4851 126.518C84.0106 79.277 142.654 54.2996 208.357 54.2996C274.421 54.2996 333.426 79.4583 377.588 126.699C380.846 129.957 385.736 129.776 389.353 126.337L414.334 101.359C417.588 98.1011 417.411 94.1192 414.875 91.0422C372.339 38.5525 292.34 0 208.357 0C124.554 0 44.1909 38.5525 1.83754 91.0422C-0.696434 94.1192 -0.696434 98.1011 2.38053 101.359L27.3583 126.699Z" fill="white"/>
<path d="M102.472 202.356C106.454 206.157 111.341 205.614 114.961 201.632C136.681 177.559 172.157 160.002 208.357 160.183C244.918 160.002 280.394 178.102 302.475 202.175C305.733 205.976 310.258 205.795 314.24 202.175L342.295 174.301C345.191 171.405 345.553 167.423 342.838 164.165C315.507 130.68 264.828 105.522 208.357 105.522C151.885 105.522 101.205 130.68 73.8749 164.165C71.1597 167.423 71.3409 171.043 74.4176 174.301L102.472 202.356Z" fill="white"/>
<path d="M208.357 300.819C212.338 300.819 215.777 299.009 222.836 292.131L267 249.777C269.715 247.062 270.439 243.081 267.905 239.823C256.14 224.619 233.877 211.406 208.357 211.406C182.112 211.406 159.849 225.162 148.084 240.909C146.274 243.804 146.998 247.062 149.894 249.777L193.876 292.131C200.935 298.828 204.374 300.819 208.357 300.819Z" fill="white"/>
</svg>
